<svg width="1492" height="746" viewBox="0 0 1492 746" fill="none" xmlns="http://www.w3.org/2000/svg">
<g opacity="0.3">
<line x1="820.007" y1="1.74846e-08" x2="820.007" y2="745.5" stroke="#B8B8B8" stroke-opacity="0.5" stroke-width="0.8"/>
<line x1="859.826" y1="1.74846e-08" x2="859.826" y2="745.5" stroke="#B8B8B8" stroke-opacity="0.5" stroke-width="0.8"/>
<line x1="785.719" y1="1.74846e-08" x2="785.719" y2="745.5" stroke="#B8B8B8" stroke-opacity="0.5" stroke-width="0.8"/>
<line x1="899.646" y1="1.74846e-08" x2="899.646" y2="745.5" stroke="#B8B8B8" stroke-opacity="0.5" stroke-width="0.8"/>
<line x1="939.465" y1="1.74846e-08" x2="939.465" y2="745.5" stroke="#B8B8B8" stroke-opacity="0.5" stroke-width="0.8"/>
<line x1="979.284" y1="1.74846e-08" x2="979.284" y2="745.5" stroke="#B8B8B8" stroke-opacity="0.5" stroke-width="0.8"/>
<line x1="1019.1" y1="1.74846e-08" x2="1019.1" y2="745.5" stroke="#B8B8B8" stroke-opacity="0.5" stroke-width="0.8"/>
<line x1="1058.92" y1="1.74846e-08" x2="1058.92" y2="745.5" stroke="#B8B8B8" stroke-opacity="0.5" stroke-width="0.8"/>
<line x1="1098.74" y1="1.74846e-08" x2="1098.74" y2="745.5" stroke="#B8B8B8" stroke-opacity="0.5" stroke-width="0.8"/>
<line x1="1138.56" y1="1.74846e-08" x2="1138.56" y2="745.5" stroke="#B8B8B8" stroke-opacity="0.5" stroke-width="0.8"/>
<line x1="1178.38" y1="1.74846e-08" x2="1178.38" y2="745.5" stroke="#B8B8B8" stroke-opacity="0.5" stroke-width="0.8"/>
<line x1="1218.2" y1="1.74846e-08" x2="1218.2" y2="745.5" stroke="#B8B8B8" stroke-opacity="0.5" stroke-width="0.8"/>
<line x1="1258.02" y1="1.74846e-08" x2="1258.02" y2="745.5" stroke="#B8B8B8" stroke-opacity="0.5" stroke-width="0.8"/>
<line x1="1297.84" y1="1.74846e-08" x2="1297.84" y2="745.5" stroke="#B8B8B8" stroke-opacity="0.5" stroke-width="0.8"/>
<line x1="1337.65" y1="1.74846e-08" x2="1337.65" y2="745.5" stroke="#B8B8B8" stroke-opacity="0.5" stroke-width="0.8"/>
<line x1="1377.47" y1="1.74846e-08" x2="1377.47" y2="745.5" stroke="#B8B8B8" stroke-opacity="0.5" stroke-width="0.8"/>
<line x1="1417.29" y1="1.74846e-08" x2="1417.29" y2="745.5" stroke="#B8B8B8" stroke-opacity="0.5" stroke-width="0.8"/>
<line x1="1451.46" y1="1.74846e-08" x2="1451.46" y2="745.5" stroke="#B8B8B8" stroke-opacity="0.5" stroke-width="0.8"/>
<line x1="1491.28" y1="1.74846e-08" x2="1491.28" y2="745.5" stroke="#B8B8B8" stroke-opacity="0.5" stroke-width="0.8"/>
<line x1="1491" y1="74.5077" x2="745.5" y2="74.5076" stroke="#B8B8B8" stroke-opacity="0.5" stroke-width="0.8"/>
<line x1="1491" y1="114.327" x2="745.5" y2="114.326" stroke="#B8B8B8" stroke-opacity="0.5" stroke-width="0.8"/>
<line x1="1491" y1="40.2188" x2="745.5" y2="40.2188" stroke="#B8B8B8" stroke-opacity="0.5" stroke-width="0.8"/>
<line x1="1491" y1="154.145" x2="745.5" y2="154.145" stroke="#B8B8B8" stroke-opacity="0.5" stroke-width="0.8"/>
<line x1="1491" y1="193.964" x2="745.5" y2="193.964" stroke="#B8B8B8" stroke-opacity="0.5" stroke-width="0.8"/>
<line x1="1491" y1="233.784" x2="745.5" y2="233.783" stroke="#B8B8B8" stroke-opacity="0.5" stroke-width="0.8"/>
<line x1="1491" y1="273.602" x2="745.5" y2="273.602" stroke="#B8B8B8" stroke-opacity="0.5" stroke-width="0.8"/>
<line x1="1491" y1="313.421" x2="745.5" y2="313.421" stroke="#B8B8B8" stroke-opacity="0.5" stroke-width="0.8"/>
<line x1="1491" y1="353.241" x2="745.5" y2="353.241" stroke="#B8B8B8" stroke-opacity="0.5" stroke-width="0.8"/>
<line x1="1491" y1="393.059" x2="745.5" y2="393.059" stroke="#B8B8B8" stroke-opacity="0.5" stroke-width="0.8"/>
<line x1="1491" y1="432.879" x2="745.5" y2="432.878" stroke="#B8B8B8" stroke-opacity="0.5" stroke-width="0.8"/>
<line x1="1491" y1="472.698" x2="745.5" y2="472.698" stroke="#B8B8B8" stroke-opacity="0.5" stroke-width="0.8"/>
<line x1="1491" y1="512.516" x2="745.5" y2="512.516" stroke="#B8B8B8" stroke-opacity="0.5" stroke-width="0.8"/>
<line x1="1491" y1="552.336" x2="745.5" y2="552.336" stroke="#B8B8B8" stroke-opacity="0.5" stroke-width="0.8"/>
<line x1="1491" y1="592.155" x2="745.5" y2="592.155" stroke="#B8B8B8" stroke-opacity="0.5" stroke-width="0.8"/>
<line x1="1491" y1="631.973" x2="745.5" y2="631.973" stroke="#B8B8B8" stroke-opacity="0.5" stroke-width="0.8"/>
<line x1="1491" y1="671.793" x2="745.5" y2="671.793" stroke="#B8B8B8" stroke-opacity="0.5" stroke-width="0.8"/>
<line x1="1491" y1="705.963" x2="745.5" y2="705.962" stroke="#B8B8B8" stroke-opacity="0.5" stroke-width="0.8"/>
</g>
<g opacity="0.3">
<line x1="74.5074" y1="1.74846e-08" x2="74.5074" y2="745.5" stroke="#B8B8B8" stroke-opacity="0.5" stroke-width="0.8"/>
<line x1="114.326" y1="1.74846e-08" x2="114.326" y2="745.5" stroke="#B8B8B8" stroke-opacity="0.5" stroke-width="0.8"/>
<line x1="40.2193" y1="1.74846e-08" x2="40.2193" y2="745.5" stroke="#B8B8B8" stroke-opacity="0.5" stroke-width="0.8"/>
<line x1="154.146" y1="1.74846e-08" x2="154.146" y2="745.5" stroke="#B8B8B8" stroke-opacity="0.5" stroke-width="0.8"/>
<line x1="193.965" y1="1.74846e-08" x2="193.965" y2="745.5" stroke="#B8B8B8" stroke-opacity="0.5" stroke-width="0.8"/>
<line x1="233.784" y1="1.74846e-08" x2="233.784" y2="745.5" stroke="#B8B8B8" stroke-opacity="0.5" stroke-width="0.8"/>
<line x1="273.603" y1="1.74846e-08" x2="273.603" y2="745.5" stroke="#B8B8B8" stroke-opacity="0.5" stroke-width="0.8"/>
<line x1="313.421" y1="1.74846e-08" x2="313.421" y2="745.5" stroke="#B8B8B8" stroke-opacity="0.5" stroke-width="0.8"/>
<line x1="353.241" y1="1.74846e-08" x2="353.241" y2="745.5" stroke="#B8B8B8" stroke-opacity="0.5" stroke-width="0.8"/>
<line x1="393.059" y1="1.74846e-08" x2="393.059" y2="745.5" stroke="#B8B8B8" stroke-opacity="0.5" stroke-width="0.8"/>
<line x1="432.879" y1="1.74846e-08" x2="432.878" y2="745.5" stroke="#B8B8B8" stroke-opacity="0.5" stroke-width="0.8"/>
<line x1="472.697" y1="1.74846e-08" x2="472.697" y2="745.5" stroke="#B8B8B8" stroke-opacity="0.5" stroke-width="0.8"/>
<line x1="512.516" y1="1.74846e-08" x2="512.516" y2="745.5" stroke="#B8B8B8" stroke-opacity="0.5" stroke-width="0.8"/>
<line x1="552.336" y1="1.74846e-08" x2="552.336" y2="745.5" stroke="#B8B8B8" stroke-opacity="0.5" stroke-width="0.8"/>
<line x1="592.153" y1="1.74846e-08" x2="592.153" y2="745.5" stroke="#B8B8B8" stroke-opacity="0.5" stroke-width="0.8"/>
<line x1="631.972" y1="1.74846e-08" x2="631.972" y2="745.5" stroke="#B8B8B8" stroke-opacity="0.5" stroke-width="0.8"/>
<line x1="671.793" y1="1.74846e-08" x2="671.793" y2="745.5" stroke="#B8B8B8" stroke-opacity="0.5" stroke-width="0.8"/>
<line x1="705.963" y1="1.74846e-08" x2="705.962" y2="745.5" stroke="#B8B8B8" stroke-opacity="0.5" stroke-width="0.8"/>
<line x1="745.782" y1="1.74846e-08" x2="745.782" y2="745.5" stroke="#B8B8B8" stroke-opacity="0.5" stroke-width="0.8"/>
<line x1="745.5" y1="74.5077" x2="-3.49692e-08" y2="74.5076" stroke="#B8B8B8" stroke-opacity="0.5" stroke-width="0.8"/>
<line x1="745.5" y1="114.327" x2="-3.49692e-08" y2="114.326" stroke="#B8B8B8" stroke-opacity="0.5" stroke-width="0.8"/>
<line x1="745.5" y1="40.2188" x2="-3.49692e-08" y2="40.2188" stroke="#B8B8B8" stroke-opacity="0.5" stroke-width="0.8"/>
<line x1="745.5" y1="154.145" x2="-3.49692e-08" y2="154.145" stroke="#B8B8B8" stroke-opacity="0.5" stroke-width="0.8"/>
<line x1="745.5" y1="193.964" x2="-3.49692e-08" y2="193.964" stroke="#B8B8B8" stroke-opacity="0.5" stroke-width="0.8"/>
<line x1="745.5" y1="233.784" x2="-3.49692e-08" y2="233.783" stroke="#B8B8B8" stroke-opacity="0.5" stroke-width="0.8"/>
<line x1="745.5" y1="273.602" x2="-3.49692e-08" y2="273.602" stroke="#B8B8B8" stroke-opacity="0.5" stroke-width="0.8"/>
<line x1="745.5" y1="313.421" x2="-3.49692e-08" y2="313.421" stroke="#B8B8B8" stroke-opacity="0.5" stroke-width="0.8"/>
<line x1="745.5" y1="353.241" x2="-3.49692e-08" y2="353.241" stroke="#B8B8B8" stroke-opacity="0.5" stroke-width="0.8"/>
<line x1="745.5" y1="393.059" x2="-3.49692e-08" y2="393.059" stroke="#B8B8B8" stroke-opacity="0.5" stroke-width="0.8"/>
<line x1="745.5" y1="432.879" x2="-3.49692e-08" y2="432.878" stroke="#B8B8B8" stroke-opacity="0.5" stroke-width="0.8"/>
<line x1="745.5" y1="472.698" x2="-3.49692e-08" y2="472.698" stroke="#B8B8B8" stroke-opacity="0.5" stroke-width="0.8"/>
<line x1="745.5" y1="512.516" x2="-3.49692e-08" y2="512.516" stroke="#B8B8B8" stroke-opacity="0.5" stroke-width="0.8"/>
<line x1="745.5" y1="552.336" x2="-3.49692e-08" y2="552.336" stroke="#B8B8B8" stroke-opacity="0.5" stroke-width="0.8"/>
<line x1="745.5" y1="592.155" x2="-3.49692e-08" y2="592.155" stroke="#B8B8B8" stroke-opacity="0.5" stroke-width="0.8"/>
<line x1="745.5" y1="631.973" x2="-3.49692e-08" y2="631.973" stroke="#B8B8B8" stroke-opacity="0.5" stroke-width="0.8"/>
<line x1="745.5" y1="671.793" x2="-3.49692e-08" y2="671.793" stroke="#B8B8B8" stroke-opacity="0.5" stroke-width="0.8"/>
<line x1="745.5" y1="705.963" x2="-3.49692e-08" y2="705.962" stroke="#B8B8B8" stroke-opacity="0.5" stroke-width="0.8"/>
</g>
</svg>
