<svg width="701" height="701" viewBox="0 0 701 701" fill="none" xmlns="http://www.w3.org/2000/svg">
<path d="M701 628H3.84476e-07M701 591L8.30969e-07 591M701 665H0M701 554H1.27746e-06M701 517H1.72397e-06M701 480L2.17045e-06 480M701 443L2.61695e-06 443M701 406L3.06343e-06 406M701 369L3.50994e-06 369M701 332L3.95642e-06 332M701 295L4.40292e-06 295M701 258L4.8494e-06 258M701 221L5.29591e-06 221M701 184L5.7424e-06 184M701 147L6.18888e-06 147M701 110L6.63538e-06 110M701 73L7.08187e-06 73M701 36.5537L7.46503e-06 36.5537M624 7.05953e-06L624 701M587 6.61831e-06L587 701M661 7.50075e-06V701M550 6.17709e-06L550 701M513 5.73586e-06L513 701M476 5.29464e-06L476 701M439 4.85343e-06L439 701M402 4.4122e-06L402 701M365 3.97099e-06L365 701M328 3.52976e-06L328 701M291 3.08855e-06L291 701M254 2.64732e-06L254 701M217 2.20611e-06L217 701M180 1.76489e-06L180 701M143 1.32366e-06L143 701M106 8.82443e-07L106 701M68.9999 4.4122e-07L69 701M32 0L32.0001 701" stroke="url(#paint0_linear_304_101)" stroke-opacity="0.3"/>
<defs>
<linearGradient id="paint0_linear_304_101" x1="350.5" y1="2.98023e-08" x2="351" y2="626" gradientUnits="userSpaceOnUse">
<stop stop-color="#DADADA"/>
<stop offset="1" stop-color="#DADADA" stop-opacity="0"/>
</linearGradient>
</defs>
</svg>
